<svg width="16" height="13" viewBox="0 0 16 13" fill="none" xmlns="http://www.w3.org/2000/svg">
<path d="M14.7027 0.526306H1.2973C0.953356 0.526664 0.623616 0.648771 0.380412 0.865841C0.137208 1.08291 0.000400565 1.37722 0 1.6842V9.4035C0.000400565 9.71048 0.137208 10.0048 0.380412 10.2219C0.623616 10.4389 0.953356 10.561 1.2973 10.5614H5.93254L5.71632 11.3333H4.54054C4.42585 11.3333 4.31586 11.374 4.23477 11.4464C4.15367 11.5188 4.10811 11.6169 4.10811 11.7193C4.10811 11.8217 4.15367 11.9198 4.23477 11.9922C4.31586 12.0646 4.42585 12.1053 4.54054 12.1053H11.4595C11.5741 12.1053 11.6841 12.0646 11.7652 11.9922C11.8463 11.9198 11.8919 11.8217 11.8919 11.7193C11.8919 11.6169 11.8463 11.5188 11.7652 11.4464C11.6841 11.374 11.5741 11.3333 11.4595 11.3333H10.2837L10.0675 10.5614H11.6757C11.7904 10.5614 11.9004 10.5207 11.9815 10.4483C12.0625 10.376 12.1081 10.2778 12.1081 10.1754C12.1081 10.0731 12.0625 9.97489 11.9815 9.90251C11.9004 9.83013 11.7904 9.78947 11.6757 9.78947H1.2973C1.18261 9.78947 1.07262 9.7488 0.991521 9.67642C0.910425 9.60404 0.864865 9.50587 0.864865 9.4035V1.6842C0.864865 1.58184 0.910425 1.48367 0.991521 1.41128C1.07262 1.3389 1.18261 1.29824 1.2973 1.29824H14.7027C14.8174 1.29824 14.9274 1.3389 15.0085 1.41128C15.0896 1.48367 15.1351 1.58184 15.1351 1.6842V9.4035C15.1351 9.50587 15.0896 9.60404 15.0085 9.67642C14.9274 9.7488 14.8174 9.78947 14.7027 9.78947H14.2703C14.1556 9.78947 14.0456 9.83013 13.9645 9.90251C13.8834 9.97489 13.8378 10.0731 13.8378 10.1754C13.8378 10.2778 13.8834 10.376 13.9645 10.4483C14.0456 10.5207 14.1556 10.5614 14.2703 10.5614H14.7027C15.0466 10.561 15.3764 10.4389 15.6196 10.2219C15.8628 10.0048 15.9996 9.71048 16 9.4035V1.6842C15.9996 1.37722 15.8628 1.08291 15.6196 0.865841C15.3764 0.648771 15.0466 0.526664 14.7027 0.526306ZM6.82422 10.5614H9.17578L9.392 11.3333H6.608L6.82422 10.5614Z" fill="black"/>
<path d="M12.9734 10.5614C13.2123 10.5614 13.4059 10.3886 13.4059 10.1754C13.4059 9.96226 13.2123 9.78946 12.9734 9.78946C12.7346 9.78946 12.541 9.96226 12.541 10.1754C12.541 10.3886 12.7346 10.5614 12.9734 10.5614Z" fill="black"/>
<path d="M10.0762 6.16796L10.5259 5.16445C10.5836 5.03569 10.6051 4.89628 10.5885 4.7584C10.5719 4.62052 10.5177 4.48836 10.4307 4.37349C10.3436 4.25861 10.2264 4.16451 10.0892 4.0994C9.95205 4.03429 9.79909 4.00016 9.64372 3.99999H6.6048C6.45442 4.00007 6.30621 4.03202 6.17237 4.0932L6.02383 3.76185C5.95377 3.60403 5.83208 3.4687 5.67462 3.37349C5.51715 3.27828 5.33121 3.2276 5.14102 3.22806H4.97345C4.85876 3.22806 4.74877 3.26873 4.66767 3.34111C4.58658 3.41349 4.54102 3.51166 4.54102 3.61403C4.54102 3.71639 4.58658 3.81456 4.66767 3.88694C4.74877 3.95933 4.85876 3.99999 4.97345 3.99999H5.14102C5.15834 3.99998 5.17526 4.0046 5.18961 4.01327C5.20395 4.02195 5.21504 4.03426 5.22145 4.04862L6.69021 7.32585C6.76034 7.4837 6.88211 7.61905 7.03964 7.71426C7.19718 7.80947 7.38319 7.86013 7.57345 7.85964H9.08156C9.19625 7.85964 9.30624 7.81898 9.38733 7.74659C9.46843 7.67421 9.51399 7.57604 9.51399 7.47368C9.51399 7.37131 9.46843 7.27314 9.38733 7.20076C9.30624 7.12837 9.19625 7.08771 9.08156 7.08771H7.57345C7.55613 7.08773 7.5392 7.0831 7.52486 7.07443C7.51052 7.06576 7.49943 7.05344 7.49302 7.03908L7.34188 6.70175H9.19356C9.3837 6.70211 9.56957 6.6514 9.72698 6.5562C9.88439 6.461 10.0061 6.32572 10.0762 6.16796ZM7.05453 5.92982C7.03721 5.92983 7.02028 5.9252 7.00594 5.91653C6.9916 5.90786 6.98051 5.89555 6.9741 5.88118L6.5248 4.87768C6.51959 4.86599 6.51765 4.85334 6.51916 4.84084C6.52067 4.82833 6.52558 4.81634 6.53347 4.80592C6.54136 4.79549 6.55198 4.78695 6.56441 4.78102C6.57684 4.7751 6.59071 4.77197 6.6048 4.77192H9.64372C9.65785 4.77191 9.67177 4.77499 9.68426 4.78089C9.69674 4.78678 9.70742 4.79532 9.71536 4.80576C9.7233 4.81619 9.72825 4.8282 9.72978 4.84074C9.73131 4.85328 9.72938 4.86596 9.72415 4.87768L9.27442 5.88118C9.26801 5.89555 9.25692 5.90786 9.24258 5.91653C9.22824 5.9252 9.21131 5.92983 9.19399 5.92982H7.05453Z" fill="black"/>
</svg>
