<svg width="16" height="13" viewBox="0 0 16 13" fill="none" xmlns="http://www.w3.org/2000/svg">
<path d="M10.8 0.526306H5.2C2.33333 0.526306 0 2.68579 0 5.33887V11.6939C0 11.9202 0.2 12.1053 0.444444 12.1053H15.5556C15.8 12.1053 16 11.9202 16 11.6939V5.33887C16 2.68579 13.6667 0.526306 10.8 0.526306ZM6.28889 11.262H4.08889V7.37496H6.28889V11.262ZM9.51111 11.262H7.17778V6.96363C7.17778 6.7374 6.97778 6.5523 6.73333 6.5523H3.64444C3.4 6.5523 3.2 6.7374 3.2 6.96363V11.262H0.888889V5.33887C0.888889 3.13825 2.82222 1.34897 5.2 1.34897C7.57778 1.34897 9.51111 3.13825 9.51111 5.33887V11.262ZM15.1111 11.262H10.4V5.33887C10.4 3.67298 9.48889 2.21276 8.11111 1.34897H10.8222C13.2 1.34897 15.1333 3.13825 15.1333 5.33887V11.262H15.1111Z" fill="black"/>
<path d="M3.97765 4.59848H6.44432C6.68876 4.59848 6.88876 4.41338 6.88876 4.18715C6.88876 3.96092 6.68876 3.77582 6.44432 3.77582H3.97765C3.7332 3.77582 3.5332 3.96092 3.5332 4.18715C3.5332 4.41338 3.71098 4.59848 3.97765 4.59848Z" fill="black"/>
</svg>
